<mxfile host="Electron" modified="2024-02-26T22:31:52.867Z" agent="Mozilla/5.0 (Windows NT 10.0; Win64; x64) AppleWebKit/537.36 (KHTML, like Gecko) draw.io/23.1.5 Chrome/120.0.6099.109 Electron/28.1.0 Safari/537.36" etag="UEJ-rT3KxXrSImIQruv1" version="23.1.5" type="device">
  <diagram name="Страница — 1" id="FqyrVFE3WB0qKUktqckx">
    <mxGraphModel dx="1050" dy="629" grid="1" gridSize="10" guides="1" tooltips="1" connect="1" arrows="1" fold="1" page="1" pageScale="1" pageWidth="827" pageHeight="1169" math="0" shadow="0">
      <root>
        <mxCell id="0" />
        <mxCell id="1" parent="0" />
        <mxCell id="Kl0v0smjuL1erdWpt-7B-1" value="Гость" style="shape=umlActor;verticalLabelPosition=bottom;verticalAlign=top;html=1;outlineConnect=0;" parent="1" vertex="1">
          <mxGeometry x="40" y="120" width="30" height="60" as="geometry" />
        </mxCell>
        <mxCell id="Kl0v0smjuL1erdWpt-7B-2" value="Зарегестрироваться" style="ellipse;whiteSpace=wrap;html=1;" parent="1" vertex="1">
          <mxGeometry x="100" y="100" width="120" height="30" as="geometry" />
        </mxCell>
        <mxCell id="Kl0v0smjuL1erdWpt-7B-5" value="" style="endArrow=classic;html=1;rounded=0;exitX=0.5;exitY=0.5;exitDx=0;exitDy=0;exitPerimeter=0;" parent="1" source="Kl0v0smjuL1erdWpt-7B-1" target="Kl0v0smjuL1erdWpt-7B-2" edge="1">
          <mxGeometry width="50" height="50" relative="1" as="geometry">
            <mxPoint x="-150" y="270" as="sourcePoint" />
            <mxPoint x="-100" y="220" as="targetPoint" />
          </mxGeometry>
        </mxCell>
        <mxCell id="Kl0v0smjuL1erdWpt-7B-6" value="Авторизоваться" style="ellipse;whiteSpace=wrap;html=1;" parent="1" vertex="1">
          <mxGeometry x="100" y="160" width="120" height="30" as="geometry" />
        </mxCell>
        <mxCell id="Kl0v0smjuL1erdWpt-7B-8" value="" style="endArrow=classic;html=1;rounded=0;exitX=0.5;exitY=0.5;exitDx=0;exitDy=0;exitPerimeter=0;" parent="1" source="Kl0v0smjuL1erdWpt-7B-1" target="Kl0v0smjuL1erdWpt-7B-6" edge="1">
          <mxGeometry width="50" height="50" relative="1" as="geometry">
            <mxPoint x="-150" y="270" as="sourcePoint" />
            <mxPoint x="-100" y="220" as="targetPoint" />
          </mxGeometry>
        </mxCell>
        <mxCell id="Kl0v0smjuL1erdWpt-7B-9" value="Авторизованный пользователь" style="shape=umlActor;verticalLabelPosition=bottom;verticalAlign=top;html=1;outlineConnect=0;" parent="1" vertex="1">
          <mxGeometry x="80" y="300" width="30" height="60" as="geometry" />
        </mxCell>
        <mxCell id="Kl0v0smjuL1erdWpt-7B-11" value="Отправка документа на проверку" style="ellipse;whiteSpace=wrap;html=1;" parent="1" vertex="1">
          <mxGeometry x="180" y="240" width="150" height="50" as="geometry" />
        </mxCell>
        <mxCell id="Kl0v0smjuL1erdWpt-7B-15" value="" style="endArrow=classic;html=1;rounded=0;exitX=0.5;exitY=0.5;exitDx=0;exitDy=0;exitPerimeter=0;" parent="1" source="Kl0v0smjuL1erdWpt-7B-9" target="Kl0v0smjuL1erdWpt-7B-11" edge="1">
          <mxGeometry width="50" height="50" relative="1" as="geometry">
            <mxPoint x="120" y="301" as="sourcePoint" />
            <mxPoint x="40" y="310" as="targetPoint" />
          </mxGeometry>
        </mxCell>
        <mxCell id="Kl0v0smjuL1erdWpt-7B-17" value="Нормоконтроллер" style="shape=umlActor;verticalLabelPosition=bottom;verticalAlign=top;html=1;outlineConnect=0;" parent="1" vertex="1">
          <mxGeometry x="390" y="300" width="30" height="60" as="geometry" />
        </mxCell>
        <mxCell id="Kl0v0smjuL1erdWpt-7B-18" value="Просмотр результатов проверки" style="ellipse;whiteSpace=wrap;html=1;" parent="1" vertex="1">
          <mxGeometry x="180" y="390" width="150" height="50" as="geometry" />
        </mxCell>
        <mxCell id="Kl0v0smjuL1erdWpt-7B-20" value="" style="endArrow=classic;html=1;rounded=0;exitX=0.5;exitY=0.5;exitDx=0;exitDy=0;exitPerimeter=0;" parent="1" source="Kl0v0smjuL1erdWpt-7B-9" target="Kl0v0smjuL1erdWpt-7B-18" edge="1">
          <mxGeometry width="50" height="50" relative="1" as="geometry">
            <mxPoint x="65" y="340" as="sourcePoint" />
            <mxPoint x="190" y="343" as="targetPoint" />
          </mxGeometry>
        </mxCell>
        <mxCell id="Kl0v0smjuL1erdWpt-7B-21" value="Удаление разметки" style="ellipse;whiteSpace=wrap;html=1;" parent="1" vertex="1">
          <mxGeometry x="490" y="250" width="150" height="50" as="geometry" />
        </mxCell>
        <mxCell id="Kl0v0smjuL1erdWpt-7B-23" value="" style="endArrow=classic;html=1;rounded=0;exitX=0.5;exitY=0.5;exitDx=0;exitDy=0;exitPerimeter=0;" parent="1" source="Kl0v0smjuL1erdWpt-7B-17" target="Kl0v0smjuL1erdWpt-7B-21" edge="1">
          <mxGeometry width="50" height="50" relative="1" as="geometry">
            <mxPoint x="490" y="320" as="sourcePoint" />
            <mxPoint x="540" y="270" as="targetPoint" />
          </mxGeometry>
        </mxCell>
        <mxCell id="Kl0v0smjuL1erdWpt-7B-24" value="Добавление разметки" style="ellipse;whiteSpace=wrap;html=1;" parent="1" vertex="1">
          <mxGeometry x="490" y="330" width="150" height="50" as="geometry" />
        </mxCell>
        <mxCell id="Kl0v0smjuL1erdWpt-7B-25" value="" style="endArrow=classic;html=1;rounded=0;exitX=0.5;exitY=0.5;exitDx=0;exitDy=0;exitPerimeter=0;" parent="1" source="Kl0v0smjuL1erdWpt-7B-17" target="Kl0v0smjuL1erdWpt-7B-24" edge="1">
          <mxGeometry width="50" height="50" relative="1" as="geometry">
            <mxPoint x="755" y="340" as="sourcePoint" />
            <mxPoint x="622" y="285" as="targetPoint" />
          </mxGeometry>
        </mxCell>
        <mxCell id="Kl0v0smjuL1erdWpt-7B-26" value="Добавление нового типа разметки" style="ellipse;whiteSpace=wrap;html=1;" parent="1" vertex="1">
          <mxGeometry x="480" y="410" width="150" height="50" as="geometry" />
        </mxCell>
        <mxCell id="bD7pipeDW2-znnJnzfuV-2" value="" style="endArrow=classic;html=1;rounded=0;exitX=0.5;exitY=0.5;exitDx=0;exitDy=0;exitPerimeter=0;" parent="1" source="Kl0v0smjuL1erdWpt-7B-17" target="Kl0v0smjuL1erdWpt-7B-26" edge="1">
          <mxGeometry width="50" height="50" relative="1" as="geometry">
            <mxPoint x="760" y="366" as="sourcePoint" />
            <mxPoint x="654" y="360" as="targetPoint" />
          </mxGeometry>
        </mxCell>
        <mxCell id="bD7pipeDW2-znnJnzfuV-3" value="" style="endArrow=classic;html=1;rounded=0;exitX=0.5;exitY=0.5;exitDx=0;exitDy=0;exitPerimeter=0;entryX=1;entryY=0;entryDx=0;entryDy=0;" parent="1" source="Kl0v0smjuL1erdWpt-7B-17" target="Kl0v0smjuL1erdWpt-7B-18" edge="1">
          <mxGeometry width="50" height="50" relative="1" as="geometry">
            <mxPoint x="600" y="410" as="sourcePoint" />
            <mxPoint x="754" y="475" as="targetPoint" />
          </mxGeometry>
        </mxCell>
        <mxCell id="bD7pipeDW2-znnJnzfuV-5" value="" style="endArrow=classic;html=1;rounded=0;exitX=0.5;exitY=0.5;exitDx=0;exitDy=0;exitPerimeter=0;" parent="1" source="Kl0v0smjuL1erdWpt-7B-17" target="Kl0v0smjuL1erdWpt-7B-11" edge="1">
          <mxGeometry width="50" height="50" relative="1" as="geometry">
            <mxPoint x="755" y="340" as="sourcePoint" />
            <mxPoint x="460" y="336" as="targetPoint" />
          </mxGeometry>
        </mxCell>
        <mxCell id="bD7pipeDW2-znnJnzfuV-8" value="Просмотр разметки" style="ellipse;whiteSpace=wrap;html=1;" parent="1" vertex="1">
          <mxGeometry x="490" y="160" width="150" height="50" as="geometry" />
        </mxCell>
        <mxCell id="bD7pipeDW2-znnJnzfuV-10" value="Администратор" style="shape=umlActor;verticalLabelPosition=bottom;verticalAlign=top;html=1;outlineConnect=0;" parent="1" vertex="1">
          <mxGeometry x="720" y="330" width="30" height="60" as="geometry" />
        </mxCell>
        <mxCell id="bD7pipeDW2-znnJnzfuV-12" value="Сделать авторизованного пользователя нормоконтроллером" style="ellipse;whiteSpace=wrap;html=1;" parent="1" vertex="1">
          <mxGeometry x="650" y="50" width="170" height="70" as="geometry" />
        </mxCell>
        <mxCell id="bD7pipeDW2-znnJnzfuV-16" value="" style="endArrow=classic;html=1;rounded=0;exitX=0.5;exitY=0.5;exitDx=0;exitDy=0;exitPerimeter=0;" parent="1" source="bD7pipeDW2-znnJnzfuV-10" target="Kl0v0smjuL1erdWpt-7B-21" edge="1">
          <mxGeometry width="50" height="50" relative="1" as="geometry">
            <mxPoint x="370" y="70" as="sourcePoint" />
            <mxPoint x="420" y="20" as="targetPoint" />
          </mxGeometry>
        </mxCell>
        <mxCell id="bD7pipeDW2-znnJnzfuV-17" value="" style="endArrow=classic;html=1;rounded=0;exitX=0.5;exitY=0.5;exitDx=0;exitDy=0;exitPerimeter=0;" parent="1" source="bD7pipeDW2-znnJnzfuV-10" target="Kl0v0smjuL1erdWpt-7B-24" edge="1">
          <mxGeometry width="50" height="50" relative="1" as="geometry">
            <mxPoint x="370" y="70" as="sourcePoint" />
            <mxPoint x="420" y="20" as="targetPoint" />
          </mxGeometry>
        </mxCell>
        <mxCell id="bD7pipeDW2-znnJnzfuV-19" value="" style="endArrow=classic;html=1;rounded=0;exitX=0.5;exitY=0.5;exitDx=0;exitDy=0;exitPerimeter=0;" parent="1" source="bD7pipeDW2-znnJnzfuV-10" target="Kl0v0smjuL1erdWpt-7B-26" edge="1">
          <mxGeometry width="50" height="50" relative="1" as="geometry">
            <mxPoint x="380" y="15" as="sourcePoint" />
            <mxPoint x="475" y="285" as="targetPoint" />
          </mxGeometry>
        </mxCell>
        <mxCell id="bD7pipeDW2-znnJnzfuV-21" value="Сделать нормоконтроллером авторизованного пользователя" style="ellipse;whiteSpace=wrap;html=1;" parent="1" vertex="1">
          <mxGeometry x="440" y="570" width="190" height="80" as="geometry" />
        </mxCell>
        <mxCell id="bD7pipeDW2-znnJnzfuV-22" value="" style="endArrow=classic;html=1;rounded=0;exitX=0.5;exitY=0.5;exitDx=0;exitDy=0;exitPerimeter=0;" parent="1" source="bD7pipeDW2-znnJnzfuV-10" target="bD7pipeDW2-znnJnzfuV-21" edge="1">
          <mxGeometry width="50" height="50" relative="1" as="geometry">
            <mxPoint x="440" y="10" as="sourcePoint" />
            <mxPoint x="520" y="-30" as="targetPoint" />
          </mxGeometry>
        </mxCell>
        <mxCell id="bD7pipeDW2-znnJnzfuV-26" value="Удалить новый тип разметки вместе с размеченными данными" style="ellipse;whiteSpace=wrap;html=1;" parent="1" vertex="1">
          <mxGeometry x="627" y="500" width="200" height="90" as="geometry" />
        </mxCell>
        <mxCell id="bD7pipeDW2-znnJnzfuV-27" value="" style="endArrow=classic;html=1;rounded=0;exitX=0.5;exitY=0.5;exitDx=0;exitDy=0;exitPerimeter=0;" parent="1" source="bD7pipeDW2-znnJnzfuV-10" target="bD7pipeDW2-znnJnzfuV-26" edge="1">
          <mxGeometry width="50" height="50" relative="1" as="geometry">
            <mxPoint x="745" y="370" as="sourcePoint" />
            <mxPoint x="612" y="425" as="targetPoint" />
          </mxGeometry>
        </mxCell>
        <mxCell id="bD7pipeDW2-znnJnzfuV-31" value="" style="endArrow=classic;html=1;rounded=0;exitX=0.5;exitY=0.5;exitDx=0;exitDy=0;exitPerimeter=0;entryX=0;entryY=0.5;entryDx=0;entryDy=0;" parent="1" source="Kl0v0smjuL1erdWpt-7B-17" target="bD7pipeDW2-znnJnzfuV-8" edge="1">
          <mxGeometry width="50" height="50" relative="1" as="geometry">
            <mxPoint x="470" y="300" as="sourcePoint" />
            <mxPoint x="520" y="250" as="targetPoint" />
          </mxGeometry>
        </mxCell>
        <mxCell id="bD7pipeDW2-znnJnzfuV-34" value="" style="endArrow=classic;html=1;rounded=0;entryX=1;entryY=0.5;entryDx=0;entryDy=0;exitX=0.5;exitY=0.5;exitDx=0;exitDy=0;exitPerimeter=0;" parent="1" source="bD7pipeDW2-znnJnzfuV-10" target="bD7pipeDW2-znnJnzfuV-8" edge="1">
          <mxGeometry width="50" height="50" relative="1" as="geometry">
            <mxPoint x="470" y="300" as="sourcePoint" />
            <mxPoint x="520" y="250" as="targetPoint" />
          </mxGeometry>
        </mxCell>
        <mxCell id="bD7pipeDW2-znnJnzfuV-35" value="" style="endArrow=classic;html=1;rounded=0;exitX=0.5;exitY=0.5;exitDx=0;exitDy=0;exitPerimeter=0;" parent="1" source="bD7pipeDW2-znnJnzfuV-10" target="bD7pipeDW2-znnJnzfuV-12" edge="1">
          <mxGeometry width="50" height="50" relative="1" as="geometry">
            <mxPoint x="470" y="300" as="sourcePoint" />
            <mxPoint x="520" y="250" as="targetPoint" />
          </mxGeometry>
        </mxCell>
        <mxCell id="rkBYv9eciaWjsED9xOF7-1" value="Загрузка документа&amp;nbsp;&lt;br&gt;для разметки" style="ellipse;whiteSpace=wrap;html=1;" vertex="1" parent="1">
          <mxGeometry x="490" y="100" width="150" height="50" as="geometry" />
        </mxCell>
        <mxCell id="rkBYv9eciaWjsED9xOF7-2" value="" style="endArrow=classic;html=1;rounded=0;entryX=0;entryY=0.5;entryDx=0;entryDy=0;exitX=0.5;exitY=0.5;exitDx=0;exitDy=0;exitPerimeter=0;" edge="1" parent="1" source="Kl0v0smjuL1erdWpt-7B-17" target="rkBYv9eciaWjsED9xOF7-1">
          <mxGeometry width="50" height="50" relative="1" as="geometry">
            <mxPoint x="490" y="270" as="sourcePoint" />
            <mxPoint x="540" y="220" as="targetPoint" />
          </mxGeometry>
        </mxCell>
        <mxCell id="rkBYv9eciaWjsED9xOF7-3" value="" style="endArrow=classic;html=1;rounded=0;entryX=1;entryY=0.5;entryDx=0;entryDy=0;exitX=0.5;exitY=0.5;exitDx=0;exitDy=0;exitPerimeter=0;" edge="1" parent="1" source="bD7pipeDW2-znnJnzfuV-10" target="rkBYv9eciaWjsED9xOF7-1">
          <mxGeometry width="50" height="50" relative="1" as="geometry">
            <mxPoint x="415" y="340" as="sourcePoint" />
            <mxPoint x="500" y="135" as="targetPoint" />
          </mxGeometry>
        </mxCell>
      </root>
    </mxGraphModel>
  </diagram>
</mxfile>
